<svg width="148" height="32" viewBox="0 0 148 32" fill="none" xmlns="http://www.w3.org/2000/svg">
<g clip-path="url(#clip0_260_2)">
<path opacity="0.3" d="M0.0166016 31.737L15.4166 31.7379C24.1906 31.7379 31.3029 24.633 31.3029 15.8691C31.3029 7.10492 24.1906 0 15.4166 0L0.0166016 0.000860163V31.737Z" fill="#3758D0"/>
<path d="M8.11555 7C8.07688 7 8.03867 7.00133 8 7.00133V55.9987C8.03867 55.9987 8.07688 56 8.11555 56C21.8587 56 33 45.0312 33 31.5002C33 17.9693 21.8587 7 8.11555 7Z" fill="#3758D0"/>
<path d="M44.78 12.6C45.1667 12.0933 45.6933 11.6667 46.36 11.32C47.0267 10.9733 47.78 10.8 48.62 10.8C49.58 10.8 50.4533 11.04 51.24 11.52C52.04 11.9867 52.6667 12.6467 53.12 13.5C53.5733 14.3533 53.8 15.3333 53.8 16.44C53.8 17.5467 53.5733 18.54 53.12 19.42C52.6667 20.2867 52.04 20.9667 51.24 21.46C50.4533 21.94 49.58 22.18 48.62 22.18C47.78 22.18 47.0333 22.0133 46.38 21.68C45.7267 21.3333 45.1933 20.9067 44.78 20.4V27.24H42.5V10.98H44.78V12.6ZM51.48 16.44C51.48 15.68 51.32 15.0267 51 14.48C50.6933 13.92 50.28 13.5 49.76 13.22C49.2533 12.9267 48.7067 12.78 48.12 12.78C47.5467 12.78 47 12.9267 46.48 13.22C45.9733 13.5133 45.56 13.94 45.24 14.5C44.9333 15.06 44.78 15.72 44.78 16.48C44.78 17.24 44.9333 17.9067 45.24 18.48C45.56 19.04 45.9733 19.4667 46.48 19.76C47 20.0533 47.5467 20.2 48.12 20.2C48.7067 20.2 49.2533 20.0533 49.76 19.76C50.28 19.4533 50.6933 19.0133 51 18.44C51.32 17.8667 51.48 17.2 51.48 16.44ZM60.8347 22.18C59.7947 22.18 58.8547 21.9467 58.0147 21.48C57.1747 21 56.5147 20.3333 56.0347 19.48C55.5547 18.6133 55.3147 17.6133 55.3147 16.48C55.3147 15.36 55.5614 14.3667 56.0547 13.5C56.548 12.6333 57.2214 11.9667 58.0747 11.5C58.928 11.0333 59.8814 10.8 60.9347 10.8C61.988 10.8 62.9414 11.0333 63.7947 11.5C64.648 11.9667 65.3214 12.6333 65.8147 13.5C66.308 14.3667 66.5547 15.36 66.5547 16.48C66.5547 17.6 66.3014 18.5933 65.7947 19.46C65.288 20.3267 64.5947 21 63.7147 21.48C62.848 21.9467 61.888 22.18 60.8347 22.18ZM60.8347 20.2C61.4214 20.2 61.968 20.06 62.4747 19.78C62.9947 19.5 63.4147 19.08 63.7347 18.52C64.0547 17.96 64.2147 17.28 64.2147 16.48C64.2147 15.68 64.0614 15.0067 63.7547 14.46C63.448 13.9 63.0414 13.48 62.5347 13.2C62.028 12.92 61.4814 12.78 60.8947 12.78C60.308 12.78 59.7614 12.92 59.2547 13.2C58.7614 13.48 58.368 13.9 58.0747 14.46C57.7814 15.0067 57.6347 15.68 57.6347 16.48C57.6347 17.6667 57.9347 18.5867 58.5347 19.24C59.148 19.88 59.9147 20.2 60.8347 20.2ZM78.7886 10.98V22H76.5086V20.7C76.1486 21.1533 75.6753 21.5133 75.0886 21.78C74.5153 22.0333 73.9019 22.16 73.2486 22.16C72.3819 22.16 71.6019 21.98 70.9086 21.62C70.2286 21.26 69.6886 20.7267 69.2886 20.02C68.9019 19.3133 68.7086 18.46 68.7086 17.46V10.98H70.9686V17.12C70.9686 18.1067 71.2153 18.8667 71.7086 19.4C72.2019 19.92 72.8753 20.18 73.7286 20.18C74.5819 20.18 75.2553 19.92 75.7486 19.4C76.2553 18.8667 76.5086 18.1067 76.5086 17.12V10.98H78.7886ZM85.7969 22.18C84.9302 22.18 84.1502 22.0267 83.4569 21.72C82.7769 21.4 82.2369 20.9733 81.8369 20.44C81.4369 19.8933 81.2235 19.2867 81.1969 18.62H83.5569C83.5969 19.0867 83.8169 19.48 84.2169 19.8C84.6302 20.1067 85.1435 20.26 85.7569 20.26C86.3969 20.26 86.8902 20.14 87.2369 19.9C87.5969 19.6467 87.7769 19.3267 87.7769 18.94C87.7769 18.5267 87.5769 18.22 87.1769 18.02C86.7902 17.82 86.1702 17.6 85.3169 17.36C84.4902 17.1333 83.8169 16.9133 83.2969 16.7C82.7769 16.4867 82.3235 16.16 81.9369 15.72C81.5635 15.28 81.3769 14.7 81.3769 13.98C81.3769 13.3933 81.5502 12.86 81.8969 12.38C82.2435 11.8867 82.7369 11.5 83.3769 11.22C84.0302 10.94 84.7769 10.8 85.6169 10.8C86.8702 10.8 87.8769 11.12 88.6369 11.76C89.4102 12.3867 89.8235 13.2467 89.8769 14.34H87.5969C87.5569 13.8467 87.3569 13.4533 86.9969 13.16C86.6369 12.8667 86.1502 12.72 85.5369 12.72C84.9369 12.72 84.4769 12.8333 84.1569 13.06C83.8369 13.2867 83.6769 13.5867 83.6769 13.96C83.6769 14.2533 83.7835 14.5 83.9969 14.7C84.2102 14.9 84.4702 15.06 84.7769 15.18C85.0835 15.2867 85.5369 15.4267 86.1369 15.6C86.9369 15.8133 87.5902 16.0333 88.0969 16.26C88.6169 16.4733 89.0635 16.7933 89.4369 17.22C89.8102 17.6467 90.0035 18.2133 90.0169 18.92C90.0169 19.5467 89.8435 20.1067 89.4969 20.6C89.1502 21.0933 88.6569 21.48 88.0169 21.76C87.3902 22.04 86.6502 22.18 85.7969 22.18ZM91.7205 16.44C91.7205 15.3333 91.9471 14.3533 92.4005 13.5C92.8671 12.6467 93.4938 11.9867 94.2805 11.52C95.0805 11.04 95.9605 10.8 96.9205 10.8C97.7871 10.8 98.5405 10.9733 99.1805 11.32C99.8338 11.6533 100.354 12.0733 100.74 12.58V10.98H103.04V22H100.74V20.36C100.354 20.88 99.8271 21.3133 99.1605 21.66C98.4938 22.0067 97.7338 22.18 96.8805 22.18C95.9338 22.18 95.0671 21.94 94.2805 21.46C93.4938 20.9667 92.8671 20.2867 92.4005 19.42C91.9471 18.54 91.7205 17.5467 91.7205 16.44ZM100.74 16.48C100.74 15.72 100.58 15.06 100.26 14.5C99.9538 13.94 99.5471 13.5133 99.0405 13.22C98.5338 12.9267 97.9871 12.78 97.4005 12.78C96.8138 12.78 96.2671 12.9267 95.7605 13.22C95.2538 13.5 94.8405 13.92 94.5205 14.48C94.2138 15.0267 94.0605 15.68 94.0605 16.44C94.0605 17.2 94.2138 17.8667 94.5205 18.44C94.8405 19.0133 95.2538 19.4533 95.7605 19.76C96.2805 20.0533 96.8271 20.2 97.4005 20.2C97.9871 20.2 98.5338 20.0533 99.0405 19.76C99.5471 19.4667 99.9538 19.04 100.26 18.48C100.58 17.9067 100.74 17.24 100.74 16.48ZM108.315 12.58C108.648 12.02 109.088 11.5867 109.635 11.28C110.195 10.96 110.855 10.8 111.615 10.8V13.16H111.035C110.142 13.16 109.462 13.3867 108.995 13.84C108.542 14.2933 108.315 15.08 108.315 16.2V22H106.035V10.98H108.315V12.58Z" fill="#3758D0"/>
</g>
<defs>
<clipPath id="clip0_260_2">
<rect width="148" height="32" fill="white"/>
</clipPath>
</defs>
</svg>
