<svg width="21" height="20" viewBox="0 0 21 20" fill="none" xmlns="http://www.w3.org/2000/svg">
<path d="M10.2749 0C8.29709 0 6.3637 0.58649 4.7192 1.6853C3.07471 2.78412 1.79299 4.3459 1.03611 6.17317C0.279235 8.00043 0.0812018 10.0111 0.467054 11.9509C0.852906 13.8907 1.80531 15.6725 3.20384 17.0711C4.60236 18.4696 6.38419 19.422 8.324 19.8079C10.2638 20.1937 12.2745 19.9957 14.1017 19.2388C15.929 18.4819 17.4908 17.2002 18.5896 15.5557C19.6884 13.9112 20.2749 11.9778 20.2749 10C20.2749 8.68678 20.0162 7.38642 19.5137 6.17317C19.0112 4.95991 18.2746 3.85752 17.346 2.92893C16.4174 2.00035 15.315 1.26375 14.1017 0.761205C12.8885 0.258658 11.5881 0 10.2749 0ZM10.2749 16C10.0771 16 9.88379 15.9414 9.71934 15.8315C9.55489 15.7216 9.42671 15.5654 9.35103 15.3827C9.27534 15.2 9.25554 14.9989 9.29412 14.8049C9.33271 14.6109 9.42795 14.4327 9.5678 14.2929C9.70765 14.153 9.88584 14.0578 10.0798 14.0192C10.2738 13.9806 10.4749 14.0004 10.6576 14.0761C10.8403 14.1518 10.9965 14.28 11.1064 14.4444C11.2163 14.6089 11.2749 14.8022 11.2749 15C11.2749 15.2652 11.1695 15.5196 10.982 15.7071C10.7945 15.8946 10.5401 16 10.2749 16ZM11.2749 10.84V12C11.2749 12.2652 11.1695 12.5196 10.982 12.7071C10.7945 12.8946 10.5401 13 10.2749 13C10.0097 13 9.75534 12.8946 9.5678 12.7071C9.38026 12.5196 9.27491 12.2652 9.27491 12V10C9.27491 9.73478 9.38026 9.48043 9.5678 9.29289C9.75534 9.10536 10.0097 9 10.2749 9C10.5716 9 10.8616 8.91203 11.1083 8.7472C11.3549 8.58238 11.5472 8.34811 11.6607 8.07403C11.7743 7.79994 11.804 7.49834 11.7461 7.20736C11.6882 6.91639 11.5453 6.64912 11.3356 6.43934C11.1258 6.22956 10.8585 6.0867 10.5675 6.02882C10.2766 5.97094 9.97497 6.00065 9.70088 6.11418C9.42679 6.22771 9.19252 6.41997 9.0277 6.66665C8.86288 6.91332 8.77491 7.20333 8.77491 7.5C8.77491 7.76522 8.66955 8.01957 8.48201 8.20711C8.29448 8.39464 8.04012 8.5 7.77491 8.5C7.50969 8.5 7.25534 8.39464 7.0678 8.20711C6.88026 8.01957 6.77491 7.76522 6.77491 7.5C6.77229 6.8503 6.95057 6.2127 7.28977 5.65857C7.62898 5.10445 8.11573 4.65568 8.69552 4.3625C9.27532 4.06933 9.92527 3.94332 10.5726 3.99859C11.22 4.05386 11.8392 4.28823 12.3609 4.67545C12.8826 5.06267 13.2862 5.58746 13.5266 6.19107C13.7669 6.79467 13.8345 7.45327 13.7218 8.09312C13.6091 8.73297 13.3205 9.32882 12.8883 9.81396C12.4562 10.2991 11.8975 10.6544 11.2749 10.84Z" fill="#525252"/>
</svg>
