<svg width="20" height="18" viewBox="0 0 20 18" fill="none" xmlns="http://www.w3.org/2000/svg">
<path d="M9.7749 0.5C8.52734 0.5 7.292 0.744288 6.13941 1.21892C4.98682 1.69354 3.93954 2.38922 3.05739 3.26621C1.27579 5.03739 0.274902 7.43962 0.274902 9.94444V16.5556C0.274902 16.806 0.374991 17.0463 0.553151 17.2234C0.73131 17.4005 0.972947 17.5 1.2249 17.5H4.0749C4.83077 17.5 5.55568 17.2015 6.09016 16.6701C6.62464 16.1388 6.9249 15.4181 6.9249 14.6667V12.7778C6.9249 12.0263 6.62464 11.3057 6.09016 10.7743C5.55568 10.243 4.83077 9.94444 4.0749 9.94444H2.1749C2.1749 7.94059 2.97561 6.0188 4.40089 4.60186C5.82617 3.18492 7.75926 2.38889 9.7749 2.38889C11.7905 2.38889 13.7236 3.18492 15.1489 4.60186C16.5742 6.0188 17.3749 7.94059 17.3749 9.94444H15.4749C14.719 9.94444 13.9941 10.243 13.4596 10.7743C12.9252 11.3057 12.6249 12.0263 12.6249 12.7778V14.6667C12.6249 15.4181 12.9252 16.1388 13.4596 16.6701C13.9941 17.2015 14.719 17.5 15.4749 17.5H18.3249C18.5769 17.5 18.8185 17.4005 18.9967 17.2234C19.1748 17.0463 19.2749 16.806 19.2749 16.5556V9.94444C19.2749 7.43962 18.274 5.03739 16.4924 3.26621C14.7108 1.49504 12.2945 0.5 9.7749 0.5ZM4.0749 11.8333C4.32686 11.8333 4.56849 11.9328 4.74665 12.11C4.92481 12.2871 5.0249 12.5273 5.0249 12.7778V14.6667C5.0249 14.9171 4.92481 15.1574 4.74665 15.3345C4.56849 15.5116 4.32686 15.6111 4.0749 15.6111H2.1749V11.8333H4.0749ZM17.3749 15.6111H15.4749C15.2229 15.6111 14.9813 15.5116 14.8032 15.3345C14.625 15.1574 14.5249 14.9171 14.5249 14.6667V12.7778C14.5249 12.5273 14.625 12.2871 14.8032 12.11C14.9813 11.9328 15.2229 11.8333 15.4749 11.8333H17.3749V15.6111Z" fill="#525252"/>
</svg>
