<svg width="87" height="104" viewBox="0 0 87 104" fill="none" xmlns="http://www.w3.org/2000/svg">
<path d="M74.0058 58.3874V81.8721H5.27783V41.7003M5.27783 43.3691V32.2592C5.27783 30.3969 6.60483 28.8889 8.24183 28.8889H52.4998" stroke="#00229B" stroke-width="3" stroke-linecap="round" stroke-linejoin="round"/>
<path d="M70.9718 50.5548C77.5683 50.5548 82.9158 44.088 82.9158 36.1109C82.9158 28.1337 77.5683 21.667 70.9718 21.667C64.3753 21.667 59.0278 28.1337 59.0278 36.1109C59.0278 44.088 64.3753 50.5548 70.9718 50.5548Z" fill="#DCE4FF"/>
<path d="M70.375 21.667C63.448 21.667 57.833 28.4572 57.833 36.8329C57.833 45.2097 63.448 51.9999 70.375 51.9999C77.302 51.9999 82.917 45.2097 82.917 36.8329" stroke="#1F3DA9" stroke-width="3" stroke-linecap="round" stroke-linejoin="round"/>
<path d="M69.9434 41.206V29.3878H70.7006V41.206H69.9434ZM71.9516 33.2887C71.9147 32.9163 71.7562 32.627 71.4761 32.4208C71.1961 32.2146 70.816 32.1115 70.3358 32.1115C70.0096 32.1115 69.7342 32.1577 69.5095 32.25C69.2848 32.3393 69.1125 32.4639 68.9925 32.624C68.8755 32.784 68.817 32.9656 68.817 33.1687C68.8109 33.338 68.8463 33.4857 68.9232 33.6119C69.0032 33.7381 69.1125 33.8473 69.251 33.9397C69.3895 34.0289 69.5495 34.1074 69.7311 34.1751C69.9127 34.2397 70.1066 34.2951 70.3128 34.3413L71.1622 34.5444C71.5746 34.6367 71.9532 34.7598 72.2979 34.9137C72.6425 35.0676 72.9411 35.2569 73.1934 35.4816C73.4458 35.7062 73.6412 35.9709 73.7797 36.2756C73.9213 36.5803 73.9936 36.9296 73.9967 37.3235C73.9936 37.9021 73.8459 38.4038 73.5535 38.8285C73.2642 39.2501 72.8457 39.5779 72.2979 39.8118C71.7531 40.0426 71.096 40.158 70.3266 40.158C69.5634 40.158 68.8986 40.0411 68.3323 39.8072C67.7691 39.5733 67.329 39.2271 67.012 38.7685C66.6981 38.3068 66.5334 37.7359 66.518 37.0558H68.4523C68.4739 37.3728 68.5647 37.6375 68.7247 37.8498C68.8878 38.0591 69.1048 38.2176 69.3756 38.3253C69.6495 38.4299 69.9588 38.4823 70.3035 38.4823C70.6421 38.4823 70.936 38.433 71.1853 38.3345C71.4376 38.2361 71.6331 38.0991 71.7716 37.9237C71.9101 37.7482 71.9793 37.5467 71.9793 37.3189C71.9793 37.1066 71.9162 36.9281 71.79 36.7834C71.6669 36.6388 71.4854 36.5156 71.2453 36.4141C71.0083 36.3125 70.7175 36.2202 70.3728 36.1371L69.3433 35.8786C68.5462 35.6847 67.9168 35.3815 67.4552 34.9691C66.9935 34.5567 66.7642 34.0012 66.7673 33.3026C66.7642 32.7301 66.9166 32.23 67.2243 31.8022C67.5352 31.3744 67.9614 31.0405 68.5031 30.8004C69.0448 30.5604 69.6603 30.4404 70.3497 30.4404C71.0514 30.4404 71.6639 30.5604 72.1871 30.8004C72.7133 31.0405 73.1227 31.3744 73.415 31.8022C73.7074 32.23 73.8582 32.7255 73.8675 33.2887H71.9516Z" fill="#3758D0"/>
<path d="M40.0267 59.6814L6.47168 40.4438M39.9167 59.5303L55.5697 50.556" stroke="#00229B" stroke-width="3" stroke-linecap="round" stroke-linejoin="round"/>
</svg>
