<svg width="24" height="20" viewBox="0 0 24 20" fill="none" xmlns="http://www.w3.org/2000/svg">
<path d="M9.19797 0.00117151C8.99695 0.0217298 8.81049 0.117194 8.67444 0.269211C8.53839 0.421228 8.46235 0.619068 8.46093 0.824696V3.32194H3.55063C1.74898 3.32194 0.274902 4.82229 0.274902 6.65605V16.6617C0.274902 18.4955 1.74898 19.9958 3.55063 19.9958H4.35973C4.41419 20.0014 4.46906 20.0014 4.52351 19.9958H19.9227C21.7243 19.9958 23.1984 18.4955 23.1984 16.6617V16.1833C23.2488 16.0731 23.2749 15.953 23.2749 15.8315C23.2749 15.71 23.2488 15.5899 23.1984 15.4798V7.63628C23.2128 7.54685 23.2128 7.45564 23.1984 7.36622V6.65605C23.1984 4.82229 21.7243 3.32194 19.9227 3.32194H15.0124V0.824696C15.0098 0.604791 14.9219 0.394838 14.7679 0.240584C14.6139 0.0863303 14.4062 0.000276013 14.1902 0.00117151H9.28314C9.25422 -0.000390504 9.22689 -0.000390504 9.19797 0.00117151ZM10.1037 1.66156H13.3663V3.32194H10.1053V1.66156H10.1037ZM3.55063 4.99567C3.55063 5.5508 3.5539 6.10759 3.55063 6.65605H1.90621C1.90421 6.43631 1.94548 6.21839 2.02757 6.01515C2.10967 5.81191 2.23093 5.62746 2.38421 5.4727C2.53748 5.31793 2.71966 5.19599 2.91999 5.11406C3.12033 5.03213 3.33476 4.99187 3.55063 4.99567ZM5.18193 4.99567H18.2881V7.49291C18.2877 7.60294 18.3086 7.71196 18.3498 7.81369C18.391 7.91542 18.4515 8.00785 18.528 8.08565C18.6044 8.16344 18.6952 8.22507 18.7952 8.26697C18.8951 8.30887 19.0022 8.33022 19.1103 8.32977H21.5671V15.0013H19.1103C19.083 14.9999 19.0557 14.9999 19.0284 15.0013C18.8268 15.0211 18.6396 15.1162 18.5028 15.2683C18.3661 15.4204 18.2896 15.6187 18.2881 15.8249V18.3354H5.18193V15.8249C5.17934 15.6049 5.09147 15.395 4.93747 15.2407C4.78346 15.0865 4.5758 15.0004 4.35973 15.0013H1.90621V8.32977H4.35973C4.57357 8.33073 4.7793 8.24651 4.93294 8.09511C5.08659 7.94372 5.17595 7.73716 5.18193 7.51959C5.20323 6.66605 5.19012 5.82919 5.18193 4.99567ZM19.9227 4.99567C20.1386 4.99187 20.353 5.03213 20.5533 5.11406C20.7537 5.19599 20.9358 5.31793 21.0891 5.4727C21.2424 5.62746 21.3636 5.81191 21.4457 6.01515C21.5278 6.21839 21.5691 6.43631 21.5671 6.65605H19.9227V4.99567ZM7.64855 6.65605C7.43049 6.65605 7.22136 6.74422 7.06717 6.90116C6.91297 7.05811 6.82635 7.27096 6.82635 7.49291C6.82635 7.71486 6.91297 7.92772 7.06717 8.08466C7.22136 8.24161 7.43049 8.32977 7.64855 8.32977H15.8477C16.0658 8.32977 16.2749 8.24161 16.4291 8.08466C16.5833 7.92772 16.6699 7.71486 16.6699 7.49291C16.6699 7.27096 16.5833 7.05811 16.4291 6.90116C16.2749 6.74422 16.0658 6.65605 15.8477 6.65605H7.64855ZM1.90621 16.6617H3.55063V18.3354C3.33407 18.3377 3.11925 18.2959 2.91875 18.2126C2.71826 18.1292 2.53611 18.006 2.38297 17.8502C2.22983 17.6943 2.10879 17.5089 2.02693 17.3048C1.94506 17.1008 1.90402 16.8821 1.90621 16.6617ZM19.9227 16.6617H21.5671C21.5693 16.8821 21.5283 17.1008 21.4464 17.3048C21.3645 17.5089 21.2435 17.6943 21.0903 17.8502C20.9372 18.006 20.7551 18.1292 20.5546 18.2126C20.3541 18.2959 20.1392 18.3377 19.9227 18.3354V16.6617Z" fill="#525252"/>
</svg>
