<svg width="149" height="32" viewBox="0 0 149 32" fill="none" xmlns="http://www.w3.org/2000/svg">
<g clip-path="url(#clip0_298_1091)">
<path opacity="0.3" d="M0.741699 31.737L16.1417 31.7379C24.9157 31.7379 32.028 24.633 32.028 15.8691C32.028 7.10492 24.9157 0 16.1417 0L0.741699 0.000860163V31.737Z" fill="#3758D0"/>
<path d="M8.84065 7C8.80198 7 8.76376 7.00133 8.7251 7.00133V55.9987C8.76376 55.9987 8.80198 56 8.84065 56C22.5838 56 33.7251 45.0312 33.7251 31.5002C33.7251 17.9693 22.5838 7 8.84065 7Z" fill="#3758D0"/>
<path d="M45.5051 12.6C45.8918 12.0933 46.4184 11.6667 47.0851 11.32C47.7518 10.9733 48.5051 10.8 49.3451 10.8C50.3051 10.8 51.1784 11.04 51.9651 11.52C52.7651 11.9867 53.3918 12.6467 53.8451 13.5C54.2984 14.3533 54.5251 15.3333 54.5251 16.44C54.5251 17.5467 54.2984 18.54 53.8451 19.42C53.3918 20.2867 52.7651 20.9667 51.9651 21.46C51.1784 21.94 50.3051 22.18 49.3451 22.18C48.5051 22.18 47.7584 22.0133 47.1051 21.68C46.4518 21.3333 45.9184 20.9067 45.5051 20.4V27.24H43.2251V10.98H45.5051V12.6ZM52.2051 16.44C52.2051 15.68 52.0451 15.0267 51.7251 14.48C51.4184 13.92 51.0051 13.5 50.4851 13.22C49.9784 12.9267 49.4318 12.78 48.8451 12.78C48.2718 12.78 47.7251 12.9267 47.2051 13.22C46.6984 13.5133 46.2851 13.94 45.9651 14.5C45.6584 15.06 45.5051 15.72 45.5051 16.48C45.5051 17.24 45.6584 17.9067 45.9651 18.48C46.2851 19.04 46.6984 19.4667 47.2051 19.76C47.7251 20.0533 48.2718 20.2 48.8451 20.2C49.4318 20.2 49.9784 20.0533 50.4851 19.76C51.0051 19.4533 51.4184 19.0133 51.7251 18.44C52.0451 17.8667 52.2051 17.2 52.2051 16.44ZM61.5598 22.18C60.5198 22.18 59.5798 21.9467 58.7398 21.48C57.8998 21 57.2398 20.3333 56.7598 19.48C56.2798 18.6133 56.0398 17.6133 56.0398 16.48C56.0398 15.36 56.2865 14.3667 56.7798 13.5C57.2731 12.6333 57.9465 11.9667 58.7998 11.5C59.6531 11.0333 60.6065 10.8 61.6598 10.8C62.7131 10.8 63.6665 11.0333 64.5198 11.5C65.3731 11.9667 66.0465 12.6333 66.5398 13.5C67.0331 14.3667 67.2798 15.36 67.2798 16.48C67.2798 17.6 67.0265 18.5933 66.5198 19.46C66.0131 20.3267 65.3198 21 64.4398 21.48C63.5731 21.9467 62.6131 22.18 61.5598 22.18ZM61.5598 20.2C62.1465 20.2 62.6931 20.06 63.1998 19.78C63.7198 19.5 64.1398 19.08 64.4598 18.52C64.7798 17.96 64.9398 17.28 64.9398 16.48C64.9398 15.68 64.7865 15.0067 64.4798 14.46C64.1731 13.9 63.7665 13.48 63.2598 13.2C62.7531 12.92 62.2065 12.78 61.6198 12.78C61.0331 12.78 60.4865 12.92 59.9798 13.2C59.4865 13.48 59.0931 13.9 58.7998 14.46C58.5065 15.0067 58.3598 15.68 58.3598 16.48C58.3598 17.6667 58.6598 18.5867 59.2598 19.24C59.8731 19.88 60.6398 20.2 61.5598 20.2ZM79.5137 10.98V22H77.2337V20.7C76.8737 21.1533 76.4004 21.5133 75.8137 21.78C75.2404 22.0333 74.627 22.16 73.9737 22.16C73.107 22.16 72.327 21.98 71.6337 21.62C70.9537 21.26 70.4137 20.7267 70.0137 20.02C69.627 19.3133 69.4337 18.46 69.4337 17.46V10.98H71.6937V17.12C71.6937 18.1067 71.9404 18.8667 72.4337 19.4C72.927 19.92 73.6004 20.18 74.4537 20.18C75.307 20.18 75.9804 19.92 76.4737 19.4C76.9804 18.8667 77.2337 18.1067 77.2337 17.12V10.98H79.5137ZM86.522 22.18C85.6553 22.18 84.8753 22.0267 84.182 21.72C83.502 21.4 82.962 20.9733 82.562 20.44C82.162 19.8933 81.9486 19.2867 81.922 18.62H84.282C84.322 19.0867 84.542 19.48 84.942 19.8C85.3553 20.1067 85.8686 20.26 86.482 20.26C87.122 20.26 87.6153 20.14 87.962 19.9C88.322 19.6467 88.502 19.3267 88.502 18.94C88.502 18.5267 88.302 18.22 87.902 18.02C87.5153 17.82 86.8953 17.6 86.042 17.36C85.2153 17.1333 84.542 16.9133 84.022 16.7C83.502 16.4867 83.0486 16.16 82.662 15.72C82.2886 15.28 82.102 14.7 82.102 13.98C82.102 13.3933 82.2753 12.86 82.622 12.38C82.9686 11.8867 83.462 11.5 84.102 11.22C84.7553 10.94 85.502 10.8 86.342 10.8C87.5953 10.8 88.602 11.12 89.362 11.76C90.1353 12.3867 90.5486 13.2467 90.602 14.34H88.322C88.282 13.8467 88.082 13.4533 87.722 13.16C87.362 12.8667 86.8753 12.72 86.262 12.72C85.662 12.72 85.202 12.8333 84.882 13.06C84.562 13.2867 84.402 13.5867 84.402 13.96C84.402 14.2533 84.5086 14.5 84.722 14.7C84.9353 14.9 85.1953 15.06 85.502 15.18C85.8086 15.2867 86.262 15.4267 86.862 15.6C87.662 15.8133 88.3153 16.0333 88.822 16.26C89.342 16.4733 89.7886 16.7933 90.162 17.22C90.5353 17.6467 90.7286 18.2133 90.742 18.92C90.742 19.5467 90.5686 20.1067 90.222 20.6C89.8753 21.0933 89.382 21.48 88.742 21.76C88.1153 22.04 87.3753 22.18 86.522 22.18ZM92.4456 16.44C92.4456 15.3333 92.6722 14.3533 93.1256 13.5C93.5922 12.6467 94.2189 11.9867 95.0056 11.52C95.8056 11.04 96.6856 10.8 97.6456 10.8C98.5122 10.8 99.2656 10.9733 99.9056 11.32C100.559 11.6533 101.079 12.0733 101.466 12.58V10.98H103.766V22H101.466V20.36C101.079 20.88 100.552 21.3133 99.8856 21.66C99.2189 22.0067 98.4589 22.18 97.6056 22.18C96.6589 22.18 95.7922 21.94 95.0056 21.46C94.2189 20.9667 93.5922 20.2867 93.1256 19.42C92.6722 18.54 92.4456 17.5467 92.4456 16.44ZM101.466 16.48C101.466 15.72 101.306 15.06 100.986 14.5C100.679 13.94 100.272 13.5133 99.7656 13.22C99.2589 12.9267 98.7122 12.78 98.1256 12.78C97.5389 12.78 96.9922 12.9267 96.4856 13.22C95.9789 13.5 95.5656 13.92 95.2456 14.48C94.9389 15.0267 94.7856 15.68 94.7856 16.44C94.7856 17.2 94.9389 17.8667 95.2456 18.44C95.5656 19.0133 95.9789 19.4533 96.4856 19.76C97.0056 20.0533 97.5522 20.2 98.1256 20.2C98.7122 20.2 99.2589 20.0533 99.7656 19.76C100.272 19.4667 100.679 19.04 100.986 18.48C101.306 17.9067 101.466 17.24 101.466 16.48ZM109.04 12.58C109.374 12.02 109.814 11.5867 110.36 11.28C110.92 10.96 111.58 10.8 112.34 10.8V13.16H111.76C110.867 13.16 110.187 13.3867 109.72 13.84C109.267 14.2933 109.04 15.08 109.04 16.2V22H106.76V10.98H109.04V12.58Z" fill="#3758D0"/>
</g>
<defs>
<clipPath id="clip0_298_1091">
<rect width="148" height="32" fill="white" transform="translate(0.725098)"/>
</clipPath>
</defs>
</svg>
