<svg width="17" height="18" viewBox="0 0 17 18" fill="none" xmlns="http://www.w3.org/2000/svg">
<path d="M8.2749 8C9.33577 8 10.3532 7.57857 11.1033 6.82843C11.8535 6.07828 12.2749 5.06087 12.2749 4C12.2749 2.93913 11.8535 1.92172 11.1033 1.17157C10.3532 0.421427 9.33577 0 8.2749 0C7.21404 0 6.19662 0.421427 5.44648 1.17157C4.69633 1.92172 4.2749 2.93913 4.2749 4C4.2749 5.06087 4.69633 6.07828 5.44648 6.82843C6.19662 7.57857 7.21404 8 8.2749 8ZM8.2749 10C6.72225 9.99883 5.19071 10.3598 3.80197 11.0541C2.41323 11.7485 1.20556 12.7572 0.274902 14C1.20556 15.2428 2.41323 16.2515 3.80197 16.9459C5.19071 17.6402 6.72225 18.0012 8.2749 18C9.82756 18.0012 11.3591 17.6402 12.7478 16.9459C14.1366 16.2515 15.3442 15.2428 16.2749 14C15.3442 12.7572 14.1366 11.7485 12.7478 11.0541C11.3591 10.3598 9.82756 9.99883 8.2749 10Z" fill="#525252"/>
</svg>
